<?xml version="1.0" encoding="UTF-8"?>
<!DOCTYPE svg PUBLIC "-//W3C//DTD SVG 1.1//EN" "http://www.w3.org/Graphics/SVG/1.1/DTD/svg11.dtd">
<!-- Creator: CorelDRAW 2018 (64-Bit) -->
<svg xmlns="http://www.w3.org/2000/svg" xml:space="preserve" width="110mm" height="110mm" version="1.1" style="shape-rendering:geometricPrecision; text-rendering:geometricPrecision; image-rendering:optimizeQuality; fill-rule:evenodd; clip-rule:evenodd"
viewBox="0 0 11000 11000"
 xmlns:xlink="http://www.w3.org/1999/xlink">
 <defs>
  <style type="text/css">
   <![CDATA[
    .fil0 {fill:black}
    .fil1 {fill:#030104}
   ]]>
  </style>
 </defs>
 <g id="Layer_x0020_1">
  <metadata id="CorelCorpID_0Corel-Layer"/>
  <g id="_2574086540800">
  </g>
  <g id="_2574086539040">
  </g>
  <g id="_2574086538432">
  </g>
  <g id="_2574086539584">
  </g>
  <g id="_2574086539232">
  </g>
  <g id="_2574086538912">
  </g>
  <g id="_2574086536928">
  </g>
  <g id="_2574086536544">
  </g>
  <g id="_2574086537664">
  </g>
  <g id="_2574086537568">
  </g>
  <g id="_2574086535776">
  </g>
  <g id="_2574086535008">
  </g>
  <g id="_2574086534976">
  </g>
  <g id="_2574086534080">
  </g>
  <g id="_2574086533984">
  </g>
  <g id="_2574086527392">
   <path class="fil0" d="M7005.96 6047.37c-231.97,-231.96 -508.07,-403.67 -809.31,-507.62 322.64,-222.22 534.6,-594.11 534.6,-1014.63 0,-678.92 -538.45,-1078.45 -1217.36,-1078.45 -678.91,0 -1245.14,399.53 -1245.14,1078.45 0,420.52 211.97,792.41 534.61,1014.63 -301.24,103.95 -577.34,275.67 -809.31,507.63 -402.25,402.26 -623.78,937.07 -623.78,1505.95l142.01 115.65c-37.65,-1084.97 1002.1,-2156.53 2029.4,-2065.42 990.85,0 1921.67,958.92 1921.67,1949.77l166.38 0c0,-568.88 -221.53,-1103.69 -623.77,-1505.96zm-1505.96 -623.77c-696.64,116.15 -1065.18,-389.17 -1065.18,-884.6 0,-1234.1 2130.36,-1239.75 2130.36,-13.88 0,495.42 -368.53,1014.63 -1065.18,898.48z"/>
   <g>
    <g>
     <path class="fil1" d="M3657.89 2054.3c0,0 -1166.95,433.83 -1856.1,2065.47l3439.7 -1392.08 -1583.6 -673.39z"/>
     <path class="fil1" d="M1744.36 4352.44c0,0 -514.56,1133.81 157.85,2772.34l1519.6 -3564.3 -1677.45 791.96z"/>
     <path class="fil1" d="M2047.59 7286.24c0,0 433.83,1166.96 2065.47,1856.11l-1381.98 -3406.56 -683.49 1550.45z"/>
     <path class="fil1" d="M4345.73 9199.45c0,0 1133.81,514.23 2772.34,-157.85l-3329.41 -1490.67 557.07 1648.52z"/>
     <path class="fil1" d="M7342.21 8946.1c0,0 1167.29,-433.83 1856.1,-2066.13l-3697.51 1182 1841.41 884.13z"/>
     <path class="fil1" d="M9097.56 3875.29l-1418.49 3329.25 1577 -557.24c0,0.33 513.91,-1133.48 -158.51,-2772.01z"/>
     <path class="fil1" d="M8952.19 3713.83c0,0 -433.84,-1166.95 -2065.8,-1855.78l1511.19 3231.05 554.61 -1375.27z"/>
     <path class="fil1" d="M6653.72 1800.62c0,0 -1133.16,-514.56 -2772.02,158.18l3443.91 1479.48 -671.89 -1637.66z"/>
    </g>
    <path class="fil1" d="M5500.31 1037.28c-2464.74,0 -4463.03,1998.29 -4463.03,4462.72 0,2464.11 1997.98,4462.72 4463.03,4462.72 2464.12,0 4462.41,-1998.92 4462.41,-4462.72 0.31,-2464.43 -1997.98,-4462.72 -4462.41,-4462.72zm-21.62 8666.9c-2270.46,0 -4269.36,-1968.31 -4269.36,-4238.78 0,-2270.47 2072.41,-4256.07 4342.88,-4256.07 2269.83,0 4238.46,1985.6 4238.46,4256.07 0,2270.47 -2042.14,4238.78 -4311.98,4238.78z"/>
    <path class="fil1" d="M5500.35 500c-2761.48,0 -5000.35,2238.87 -5000.35,5000 0,2760.78 2238.52,5000 5000.35,5000 2760.78,0 4999.65,-2239.58 4999.65,-5000 0.35,-2761.13 -2238.52,-5000 -4999.65,-5000zm-24.22 9710.33c-2543.82,0 -4783.37,-2205.28 -4783.37,-4749.1 0,-2543.81 2321.92,-4768.47 4865.73,-4768.47 2543.11,0 4748.75,2224.66 4748.75,4768.47 0,2543.82 -2288,4749.1 -4831.11,4749.1z"/>
   </g>
  </g>
 </g>
</svg>
